<svg width="20" height="20" viewBox="0 0 20 20" fill="none" xmlns="http://www.w3.org/2000/svg">
<path d="M9.99967 6.45825C9.99967 5.07754 11.119 3.95825 12.4997 3.95825H17.708C18.1682 3.95825 18.5413 4.33135 18.5413 4.79159V15.2083C18.5413 15.6685 18.1682 16.0416 17.708 16.0416H12.7305C12.1635 16.0416 11.6077 16.1784 11.1254 16.4765C10.643 16.7746 10.2532 17.2011 9.99967 17.7083M9.99967 6.45825C9.99967 5.07754 8.88039 3.95825 7.49967 3.95825H2.29134C1.8311 3.95825 1.45801 4.33135 1.45801 4.79159V15.2083C1.45801 15.6685 1.8311 16.0416 2.29134 16.0416H7.26884C7.83585 16.0416 8.39166 16.1784 8.87399 16.4765C9.35631 16.7746 9.7461 17.2011 9.99967 17.7083M9.99967 6.45825V17.7083" stroke="#CAECF1" stroke-width="1.5" stroke-linecap="round" stroke-linejoin="round"/>
</svg>
