<?xml version="1.0" encoding="utf-8"?>
<!-- Uploaded to: SVG Repo, www.svgrepo.com, Generator: SVG Repo Mixer Tools -->
<svg width="800px" height="800px" viewBox="0 0 1024 1024" fill="#000000" class="icon"  version="1.1" xmlns="http://www.w3.org/2000/svg"><path d="M40.622 184.1c-4.414 0-8.076-3.576-8.076-7.996 0-4.422 3.498-7.998 7.918-7.998h0.156a7.994 7.994 0 0 1 7.998 7.998 7.99 7.99 0 0 1-7.996 7.996zM72.612 184.1c-4.414 0-8.076-3.576-8.076-7.996 0-4.422 3.498-7.998 7.918-7.998h0.156a7.994 7.994 0 0 1 7.998 7.998 7.99 7.99 0 0 1-7.996 7.996zM104.602 184.1c-4.414 0-8.076-3.576-8.076-7.996 0-4.422 3.498-7.998 7.918-7.998h0.156a7.994 7.994 0 0 1 7.998 7.998 7.99 7.99 0 0 1-7.996 7.996z" fill="" /><path d="M1015.848 200.096H8.156a7.994 7.994 0 0 1-7.998-7.998v-15.994c0-13.23 10.762-23.994 23.992-23.994h975.702c13.23 0 23.992 10.764 23.992 23.994v15.994a7.994 7.994 0 0 1-7.996 7.998zM16.152 184.1h991.696v-7.996a8.014 8.014 0 0 0-7.996-7.998H24.15a8.008 8.008 0 0 0-7.998 7.998v7.996z" fill="" /><path d="M1015.848 871.89H8.156a7.994 7.994 0 0 1-7.998-7.998V192.098a7.994 7.994 0 0 1 7.998-7.998h1007.692a7.994 7.994 0 0 1 7.996 7.998v671.794a7.994 7.994 0 0 1-7.996 7.998zM16.152 855.894h991.696V200.096H16.152v655.798z" fill="" /><path d="M511.992 631.962a7.8 7.8 0 0 1-2.85-0.532c-1.726-0.654-173.088-68.556-173.088-295.376 0-2.328 1.024-4.546 2.79-6.06a7.856 7.856 0 0 1 6.42-1.844c0.078 0.016 8.388 1.25 21.438 1.25 33.412 0 95.908-7.92 139.09-60.904 3.046-3.748 9.358-3.748 12.404 0 43.196 52.984 105.692 60.904 139.106 60.904 13.058 0 21.368-1.234 21.43-1.25a7.908 7.908 0 0 1 6.434 1.844 8.04 8.04 0 0 1 2.782 6.06c0 226.82-171.376 294.722-173.102 295.376a7.796 7.796 0 0 1-2.854 0.532z m-159.848-287.068c3.998 193.316 138.644 260.952 159.896 270.402 22.234-9.56 155.898-75.18 159.82-270.402-27.024 1.938-105.124 1.156-159.868-59.092-54.742 60.248-132.904 61.062-159.848 59.092z" fill="" /><path d="M512 559.984a7.992 7.992 0 0 1-7.998-7.996V344.05a7.992 7.992 0 0 1 7.998-7.996 7.99 7.99 0 0 1 7.996 7.996v207.938a7.99 7.99 0 0 1-7.996 7.996zM967.86 823.904H56.14a7.994 7.994 0 0 1-7.998-7.998v-31.99a7.994 7.994 0 0 1 7.998-7.998h911.72c4.422 0 8 3.578 8 7.998v31.99a7.994 7.994 0 0 1-8 7.998z m-903.722-15.994h895.726v-15.996H64.138v15.996z" fill="" /><path d="M496.004 823.904a7.996 7.996 0 0 1-5.654-13.652l31.99-31.99a7.994 7.994 0 0 1 11.308 0 7.994 7.994 0 0 1 0 11.308l-31.99 31.992a7.964 7.964 0 0 1-5.654 2.342zM248.082 759.924H56.14a7.994 7.994 0 0 1-7.998-7.998 7.992 7.992 0 0 1 7.998-7.996h191.942a7.992 7.992 0 0 1 7.998 7.996 7.994 7.994 0 0 1-7.998 7.998zM967.86 759.924h-191.942a7.992 7.992 0 0 1-7.996-7.998 7.992 7.992 0 0 1 7.996-7.996h191.942c4.422 0 8 3.576 8 7.996a7.994 7.994 0 0 1-8 7.998zM152.586 352.048c-4.412 0-8.076-3.576-8.076-7.998 0-4.42 3.5-7.996 7.92-7.996h0.156a7.992 7.992 0 0 1 7.998 7.996 7.994 7.994 0 0 1-7.998 7.998zM153.258 551.988c-26.46 0-47.986-25.118-47.986-55.984 0-30.866 21.524-55.982 47.986-55.982s47.992 25.118 47.992 55.982c0 30.868-21.53 55.984-47.992 55.984z m0-95.97c-17.642 0-31.99 17.932-31.99 39.986 0 22.056 14.348 39.988 31.99 39.988s31.998-17.932 31.998-39.988c0-22.054-14.354-39.986-31.998-39.986z" fill="" /><path d="M177.43 465.764a8.012 8.012 0 0 1-7.936-9.09c0.726-5.344 1.18-20.854-5.318-28.304-5.186-5.936-16.666-5.92-21.806-0.016-6.452 7.42-5.928 22.836-5.186 28.164a7.992 7.992 0 0 1-6.794 9.028c-4.374 0.672-8.418-2.404-9.044-6.764-0.382-2.686-3.42-26.632 8.912-40.876 11.184-12.886 34.754-12.95 46 0 12.402 14.244 9.452 38.286 9.076 40.97a7.994 7.994 0 0 1-7.904 6.888zM190.942 488.008c-4.42 0-7.998-3.578-7.998-7.998s3.578-7.998 7.998-7.998c5.552 0 9.482-1.594 12.34-5.014 7.35-8.78 5.99-27.648 4.936-33.568a8.006 8.006 0 0 1 6.466-9.278c4.414-0.688 8.514 2.124 9.28 6.466 0.554 3.092 4.998 30.63-8.42 46.656-5.88 7.016-14.386 10.734-24.602 10.734zM216.106 567.982a8 8 0 0 1-7.888-9.386c1.118-6.388 2.398-24.852-4.952-33.6-2.858-3.406-6.78-4.998-12.324-4.998-4.42 0-7.998-3.578-7.998-7.998s3.578-7.998 7.998-7.998c10.214 0 18.72 3.718 24.602 10.732 13.418 16.026 8.974 43.564 8.42 46.656a7.992 7.992 0 0 1-7.858 6.592z" fill="" /><path d="M216.09 504.002H193.254a7.994 7.994 0 0 1-7.998-7.998 7.992 7.992 0 0 1 7.998-7.996h22.836a7.992 7.992 0 0 1 7.998 7.996 7.994 7.994 0 0 1-7.998 7.998zM88.114 567.982a7.992 7.992 0 0 1-7.858-6.592c-0.554-3.092-4.99-30.646 8.42-46.656 5.88-7.014 14.386-10.732 24.594-10.732 4.42 0 7.998 3.578 7.998 7.998s-3.578 7.998-7.998 7.998c-5.538 0-9.458 1.576-12.316 4.982-7.35 8.748-6.06 27.226-4.952 33.616a8 8 0 0 1-7.888 9.386zM113.27 488.008c-10.208 0-18.712-3.718-24.594-10.732-13.41-16.01-8.974-43.564-8.42-46.656 0.774-4.36 4.968-7.216 9.264-6.466a8 8 0 0 1 6.482 9.262c-1.11 6.388-2.398 24.868 4.952 33.616 2.86 3.404 6.78 4.982 12.316 4.982 4.42 0 7.998 3.578 7.998 7.998s-3.576 7.996-7.998 7.996z" fill="" /><path d="M110.974 504.002H88.13a7.994 7.994 0 0 1-7.998-7.998 7.992 7.992 0 0 1 7.998-7.996h22.844a7.992 7.992 0 0 1 7.998 7.996 7.992 7.992 0 0 1-7.998 7.998z" fill="" /><path d="M232.086 615.968H72.136c-4.422 0-7.998-3.578-7.998-7.998s3.576-7.998 7.998-7.998h159.95c4.42 0 7.998 3.578 7.998 7.998s-3.578 7.998-7.998 7.998z" fill="" /><path d="M192.098 647.958H112.122c-4.42 0-7.998-3.578-7.998-7.998s3.578-7.998 7.998-7.998h79.976c4.42 0 7.998 3.578 7.998 7.998s-3.578 7.998-7.998 7.998z" fill="" /><path d="M152.11 328.056a7.994 7.994 0 0 1-7.998-7.998v-31.99a7.994 7.994 0 0 1 7.998-7.998 7.994 7.994 0 0 1 7.998 7.998v31.99a7.994 7.994 0 0 1-7.998 7.998z" fill="" /><path d="M152.11 377.51c-35.278 0-63.98-28.694-63.98-63.98s28.702-63.98 63.98-63.98 63.98 28.696 63.98 63.98c0 35.286-28.702 63.98-63.98 63.98z m0-111.966c-26.46 0-47.986 21.524-47.986 47.984s21.524 47.986 47.986 47.986 47.986-21.526 47.986-47.986-21.524-47.984-47.986-47.984z" fill="" /><path d="M823.906 487.274c-4.422 0-8-3.578-8-7.998 0-22.054 17.934-39.988 39.988-39.988 4.422 0 7.996 3.578 7.996 7.998s-3.574 7.998-7.996 7.998c-13.23 0-23.992 10.762-23.992 23.992a7.994 7.994 0 0 1-7.996 7.998zM951.868 615.234h-175.95c-4.418 0-7.996-3.578-7.996-7.998s3.578-7.998 7.996-7.998h175.95c4.418 0 7.996 3.578 7.996 7.998s-3.578 7.998-7.996 7.998zM903.878 647.224h-79.972c-4.422 0-8-3.576-8-7.998a7.994 7.994 0 0 1 8-7.998h79.972c4.422 0 8 3.578 8 7.998a7.994 7.994 0 0 1-8 7.998zM863.89 376.776c-35.27 0-63.98-28.694-63.98-63.98s28.71-63.98 63.98-63.98c35.274 0 63.98 28.696 63.98 63.98 0.002 35.286-28.706 63.98-63.98 63.98z m0-111.966c-26.458 0-47.984 21.524-47.984 47.984s21.528 47.986 47.984 47.986c26.46 0 47.988-21.526 47.988-47.986s-21.526-47.984-47.988-47.984zM935.872 567.25a7.976 7.976 0 0 1-5.656-2.344l-31.988-31.99a7.996 7.996 0 1 1 11.308-11.31l31.988 31.992a7.994 7.994 0 0 1-5.652 13.652z" fill="" /><path d="M855.894 551.27c-39.708 0-71.992-32.288-71.992-71.978s32.286-71.994 71.992-71.994c39.692 0 71.976 32.302 71.976 71.994s-32.284 71.978-71.976 71.978z m0-127.978c-30.878 0-56 25.118-56 55.998 0 30.866 25.122 55.982 56 55.982 30.868 0 55.984-25.118 55.984-55.982 0-30.88-25.116-55.998-55.984-55.998zM855.894 335.32a7.96 7.96 0 0 1-5.652-2.344l-15.996-15.994a7.996 7.996 0 1 1 11.308-11.31l15.996 15.996a7.998 7.998 0 0 1-5.656 13.652z" fill="" /><path d="M855.894 335.32a7.96 7.96 0 0 1-5.652-2.344 7.994 7.994 0 0 1 0-11.308l31.988-31.99a7.994 7.994 0 0 1 11.308 0 7.994 7.994 0 0 1 0 11.308l-31.988 31.99a7.964 7.964 0 0 1-5.656 2.344z" fill="" /><path d="M647.958 727.934h-255.92c-13.23 0-23.994-10.762-23.994-23.992s10.762-23.992 23.994-23.992h255.92c13.23 0 23.996 10.762 23.996 23.992s-10.766 23.992-23.996 23.992z m-255.92-31.99a8.008 8.008 0 0 0-7.998 7.998 8.008 8.008 0 0 0 7.998 7.998h255.92c4.406 0 8-3.594 8-7.998a8.014 8.014 0 0 0-8-7.998h-255.92z" fill="" /></svg>