<?xml version="1.0" encoding="iso-8859-1"?>
<!-- Uploaded to: SVG Repo, www.svgrepo.com, Generator: SVG Repo Mixer Tools -->
<svg version="1.1" id="Layer_1" xmlns="http://www.w3.org/2000/svg" xmlns:xlink="http://www.w3.org/1999/xlink" 
	 viewBox="0 0 512 512" xml:space="preserve">
<g>
	<polygon style="fill:#FCD577;" points="223.354,402.33 210.475,436.126 181.578,512 108.469,512 137.365,436.126 150.244,402.33 	
		"/>
	<polygon style="fill:#FCD577;" points="403.538,512 330.417,512 301.521,436.126 288.642,402.33 361.751,402.33 374.63,436.126 	
		"/>
</g>
<g>
	<polygon style="fill:#EAC36E;" points="150.244,402.33 223.354,402.33 210.475,436.126 137.365,436.126 	"/>
	<polygon style="fill:#EAC36E;" points="374.63,436.126 301.521,436.126 288.642,402.33 361.751,402.33 	"/>
</g>
<rect x="47.897" y="73.11" style="fill:#CFDCE5;" width="416.207" height="331.63"/>
<rect x="47.897" y="57.423" style="fill:#BAC6CC;" width="416.207" height="38.115"/>
<rect x="16.816" style="fill:#FCD577;" width="478.369" height="73.11"/>
<path style="fill:#415E72;" d="M119.246,102.177V375.68h273.502V102.177H119.246z M220.213,357.574v-23.899h-18.105v23.899h-64.756
	V120.283h64.756v172.758h18.105v-33.839h97.048v-18.105h-97.049V120.283h154.431v120.814h-19.005v18.105h19.005v98.374H220.213
	V357.574z"/>
</svg>