<svg width="20" height="20" viewBox="0 0 20 20" fill="none" xmlns="http://www.w3.org/2000/svg">
<path d="M10.6253 8.95841V4.29175C10.6253 3.18718 11.5208 2.29175 12.6253 2.29175H14.042C15.1466 2.29175 16.042 3.18718 16.042 4.29175V8.95841M10.6253 5.62508H12.7087M3.95866 8.95841V5.50432C3.95866 5.17334 4.0408 4.84753 4.19772 4.55612L5.21945 2.65861C5.34112 2.43265 5.57703 2.29175 5.83366 2.29175C6.09029 2.29175 6.3262 2.43265 6.44787 2.65861L7.4696 4.55612C7.62652 4.84753 7.70866 5.17334 7.70866 5.50432V8.95841M2.29199 8.95841H17.7087V14.8751C17.7087 15.9797 16.8132 16.8751 15.7087 16.8751H4.29199C3.18742 16.8751 2.29199 15.9797 2.29199 14.8751V8.95841Z" stroke="#CAECF1" stroke-opacity="0.7" stroke-width="1.5" stroke-linecap="round" stroke-linejoin="round"/>
</svg>
