<svg width="21" height="20" viewBox="0 0 21 20" fill="none" xmlns="http://www.w3.org/2000/svg">
<path d="M15.2954 11.875H16.9639C17.8844 11.875 18.6306 11.1288 18.6306 10.2083V4.79167C18.6306 3.87119 17.8844 3.125 16.9639 3.125H8.42232C7.50184 3.125 6.75565 3.87119 6.75565 4.79167V6.45833M13.6306 6.45833H4.88065C3.96018 6.45833 3.21399 7.20453 3.21399 8.125V13.5417C3.21399 14.4621 3.96018 15.2083 4.88065 15.2083H5.92232V17.2917L9.67232 15.2083H13.6306C14.5511 15.2083 15.2973 14.4621 15.2973 13.5417V8.125C15.2973 7.20453 14.5511 6.45833 13.6306 6.45833Z" stroke="#CAECF1" stroke-opacity="0.7" stroke-width="1.5" stroke-linecap="round" stroke-linejoin="round"/>
</svg>
